<?xml version="1.0" standalone="no"?>
<!DOCTYPE svg PUBLIC "-//W3C//DTD SVG 20010904//EN"
 "http://www.w3.org/TR/2001/REC-SVG-20010904/DTD/svg10.dtd">
<svg version="1.0" xmlns="http://www.w3.org/2000/svg"
 width="500.000000pt" height="500.000000pt" viewBox="0 0 500.000000 500.000000"
 preserveAspectRatio="xMidYMid meet">
<metadata>
Created by potrace 1.11, written by Peter Selinger 2001-2013
</metadata>
<g transform="translate(0.000000,500.000000) scale(0.100000,-0.100000)"
fill="#000000" stroke="none">
<path d="M0 2500 l0 -2500 2500 0 2500 0 0 2500 0 2500 -2500 0 -2500 0 0
-2500z m1953 769 c201 -30 358 -101 476 -217 l75 -73 33 40 c77 92 245 190
383 224 143 36 198 37 977 35 l773 -3 -94 -192 -95 -192 -718 -3 c-800 -3
-750 1 -860 -74 -100 -68 -148 -174 -147 -319 1 -124 27 -191 103 -266 63 -62
126 -91 233 -109 39 -6 333 -10 756 -10 380 0 692 -2 692 -4 0 -2 -38 -86 -83
-187 l-84 -184 -674 0 -674 0 -90 24 c-162 42 -272 103 -380 210 l-61 61 -32
-39 c-74 -92 -239 -187 -402 -232 l-85 -23 -822 -4 -823 -3 0 529 0 529 92 7
c50 3 133 6 185 6 l93 0 0 -340 0 -340 608 0 c657 0 666 1 757 55 100 58 157
146 177 271 26 167 -48 325 -184 395 -96 49 -92 49 -935 49 -436 0 -793 2
-793 4 0 3 29 66 112 246 16 36 37 82 45 103 l15 37 690 0 c437 0 715 -4 761
-11z"/>
</g>
</svg>
